<svg width="90" height="90" viewBox="0 0 90 90" fill="none" xmlns="http://www.w3.org/2000/svg">
<circle cx="45" cy="45" r="45" fill="#005CFF"/>
<path d="M62.5 41.6818C62.5 55.0455 45.25 66.5 45.25 66.5C45.25 66.5 28 55.0455 28 41.6818C28 37.1249 29.8174 32.7547 33.0524 29.5324C36.2874 26.3102 40.675 24.5 45.25 24.5C49.825 24.5 54.2126 26.3102 57.4476 29.5324C60.6826 32.7547 62.5 37.1249 62.5 41.6818Z" stroke="white" stroke-width="1.81818" stroke-linecap="round" stroke-linejoin="round"/>
<path d="M44.5 48.5C47.8137 48.5 50.5 45.8137 50.5 42.5C50.5 39.1863 47.8137 36.5 44.5 36.5C41.1863 36.5 38.5 39.1863 38.5 42.5C38.5 45.8137 41.1863 48.5 44.5 48.5Z" stroke="white" stroke-width="1.81818" stroke-linecap="round" stroke-linejoin="round"/>
</svg>
